<?xml version="1.0" encoding="UTF-8" standalone="no"?>
<!DOCTYPE svg PUBLIC "-//W3C//DTD SVG 1.1//EN"
 "http://www.w3.org/Graphics/SVG/1.1/DTD/svg11.dtd">
<!-- Generated by graphviz version 12.1.0 (0)
 -->
<!-- Title: tpcpp::Interpreter::evaluate Pages: 1 -->
<svg width="433pt" height="171pt"
 viewBox="0.00 0.00 433.25 170.75" xmlns="http://www.w3.org/2000/svg" xmlns:xlink="http://www.w3.org/1999/xlink">
<g id="graph0" class="graph" transform="scale(1 1) rotate(0) translate(4 166.75)">
<title>tpcpp::Interpreter::evaluate</title>
<!-- Node1 -->
<g id="Node000001" class="node">
<title>Node1</title>
<g id="a_Node000001"><a xlink:title="Evaluate a given string.">
<polygon fill="#999999" stroke="#666666" points="100.75,-98.12 0,-98.12 0,-64.62 100.75,-64.62 100.75,-98.12"/>
<text text-anchor="start" x="8" y="-84.62" font-family="Helvetica,sans-Serif" font-size="10.00">tpcpp::Interpreter</text>
<text text-anchor="middle" x="50.38" y="-71.88" font-family="Helvetica,sans-Serif" font-size="10.00">::evaluate</text>
</a>
</g>
</g>
<!-- Node2 -->
<g id="Node000002" class="node">
<title>Node2</title>
<g id="a_Node000002"><a xlink:href="classtpcpp_1_1Parser.html#a2923635437cd22b12ef8a80a0317da95" target="_top" xlink:title="Parse input tokens into expressions.">
<polygon fill="white" stroke="#666666" points="267.5,-162.75 155.5,-162.75 155.5,-142 267.5,-142 267.5,-162.75"/>
<text text-anchor="middle" x="211.5" y="-149.25" font-family="Helvetica,sans-Serif" font-size="10.00">tpcpp::Parser::parse</text>
</a>
</g>
</g>
<!-- Node1&#45;&gt;Node2 -->
<g id="edge1_Node000001_Node000002" class="edge">
<title>Node1&#45;&gt;Node2</title>
<g id="a_edge1_Node000001_Node000002"><a xlink:title=" ">
<path fill="none" stroke="#63b8ff" d="M75.01,-98.4C91.6,-109.67 114.69,-124.06 136.75,-133.38 140.81,-135.09 145.07,-136.68 149.4,-138.15"/>
<polygon fill="#63b8ff" stroke="#63b8ff" points="148.22,-141.45 158.81,-141.11 150.31,-134.77 148.22,-141.45"/>
</a>
</g>
</g>
<!-- Node3 -->
<g id="Node000003" class="node">
<title>Node3</title>
<g id="a_Node000003"><a xlink:href="structtpcpp_1_1PrinterExpr.html#a713e84bcc8586612939cea3508f0ce98" target="_top" xlink:title="Print a tpcpp::Expr to stdout.">
<polygon fill="white" stroke="#666666" points="263,-124.12 160,-124.12 160,-90.62 263,-90.62 263,-124.12"/>
<text text-anchor="start" x="168" y="-110.62" font-family="Helvetica,sans-Serif" font-size="10.00">tpcpp::PrinterExpr</text>
<text text-anchor="middle" x="211.5" y="-97.88" font-family="Helvetica,sans-Serif" font-size="10.00">::print</text>
</a>
</g>
</g>
<!-- Node1&#45;&gt;Node3 -->
<g id="edge2_Node000001_Node000003" class="edge">
<title>Node1&#45;&gt;Node3</title>
<g id="a_edge2_Node000001_Node000003"><a xlink:title=" ">
<path fill="none" stroke="#63b8ff" d="M100.85,-89.46C115.9,-91.92 132.64,-94.65 148.41,-97.23"/>
<polygon fill="#63b8ff" stroke="#63b8ff" points="147.75,-100.67 158.19,-98.83 148.88,-93.76 147.75,-100.67"/>
</a>
</g>
</g>
<!-- Node5 -->
<g id="Node000005" class="node">
<title>Node5</title>
<g id="a_Node000005"><a xlink:href="classtpcpp_1_1Interpreter.html#a9ed9dbf0d7fc5d37c7a356fbc2c3f866" target="_top" xlink:title="Indicate a run&#45;time error to the inteprter.">
<polygon fill="white" stroke="#666666" points="261.88,-72.12 161.12,-72.12 161.12,-38.62 261.88,-38.62 261.88,-72.12"/>
<text text-anchor="start" x="169.12" y="-58.62" font-family="Helvetica,sans-Serif" font-size="10.00">tpcpp::Interpreter</text>
<text text-anchor="middle" x="211.5" y="-45.88" font-family="Helvetica,sans-Serif" font-size="10.00">::runtimeError</text>
</a>
</g>
</g>
<!-- Node1&#45;&gt;Node5 -->
<g id="edge5_Node000001_Node000005" class="edge">
<title>Node1&#45;&gt;Node5</title>
<g id="a_edge5_Node000001_Node000005"><a xlink:title=" ">
<path fill="none" stroke="#63b8ff" d="M100.85,-73.29C116.34,-70.76 133.62,-67.94 149.8,-65.29"/>
<polygon fill="#63b8ff" stroke="#63b8ff" points="149.98,-68.81 159.29,-63.74 148.85,-61.9 149.98,-68.81"/>
</a>
</g>
</g>
<!-- Node7 -->
<g id="Node000007" class="node">
<title>Node7</title>
<g id="a_Node000007"><a xlink:href="classtpcpp_1_1Scanner.html#afa0e728b32c9ab92e52077616c1ae495" target="_top" xlink:title="Scan the source code stored in m_source.">
<polygon fill="white" stroke="#666666" points="286.25,-20.75 136.75,-20.75 136.75,0 286.25,0 286.25,-20.75"/>
<text text-anchor="middle" x="211.5" y="-7.25" font-family="Helvetica,sans-Serif" font-size="10.00">tpcpp::Scanner::scanTokens</text>
</a>
</g>
</g>
<!-- Node1&#45;&gt;Node7 -->
<g id="edge7_Node000001_Node000007" class="edge">
<title>Node1&#45;&gt;Node7</title>
<g id="a_edge7_Node000001_Node000007"><a xlink:title=" ">
<path fill="none" stroke="#63b8ff" d="M75.01,-64.35C91.6,-53.08 114.69,-38.69 136.75,-29.38 140.81,-27.66 145.07,-26.07 149.4,-24.6"/>
<polygon fill="#63b8ff" stroke="#63b8ff" points="150.31,-27.98 158.81,-21.64 148.22,-21.3 150.31,-27.98"/>
</a>
</g>
</g>
<!-- Node4 -->
<g id="Node000004" class="node">
<title>Node4</title>
<g id="a_Node000004"><a xlink:href="structtpcpp_1_1PrinterExpr.html#a7e0786e0b9019fc3fdf65a7e3969d14c" target="_top" xlink:title="Convert a tpcpp::Expr to a string.">
<polygon fill="white" stroke="#666666" points="425.25,-124.12 322.25,-124.12 322.25,-90.62 425.25,-90.62 425.25,-124.12"/>
<text text-anchor="start" x="330.25" y="-110.62" font-family="Helvetica,sans-Serif" font-size="10.00">tpcpp::PrinterExpr</text>
<text text-anchor="middle" x="373.75" y="-97.88" font-family="Helvetica,sans-Serif" font-size="10.00">::operator()</text>
</a>
</g>
</g>
<!-- Node3&#45;&gt;Node4 -->
<g id="edge3_Node000003_Node000004" class="edge">
<title>Node3&#45;&gt;Node4</title>
<g id="a_edge3_Node000003_Node000004"><a xlink:title=" ">
<path fill="none" stroke="#63b8ff" d="M263.2,-107.38C278.26,-107.38 294.92,-107.38 310.61,-107.38"/>
<polygon fill="#63b8ff" stroke="#63b8ff" points="310.31,-110.88 320.31,-107.38 310.31,-103.88 310.31,-110.88"/>
</a>
</g>
</g>
<!-- Node4&#45;&gt;Node4 -->
<g id="edge4_Node000004_Node000004" class="edge">
<title>Node4&#45;&gt;Node4</title>
<g id="a_edge4_Node000004_Node000004"><a xlink:title=" ">
<path fill="none" stroke="#63b8ff" d="M344.58,-124.54C339.63,-133.74 349.35,-142.12 373.75,-142.12 387.48,-142.12 396.56,-139.47 400.99,-135.51"/>
<polygon fill="#63b8ff" stroke="#63b8ff" points="404.38,-136.48 402.66,-126.03 397.48,-135.28 404.38,-136.48"/>
</a>
</g>
</g>
<!-- Node6 -->
<g id="Node000006" class="node">
<title>Node6</title>
<g id="a_Node000006"><a xlink:href="classtpcpp_1_1Interpreter.html#a2276ab36d6189c142082b2ac9696e05a" target="_top" xlink:title="Indicate a parsing&#45;time error to the inteprter.">
<polygon fill="white" stroke="#666666" points="424.12,-72.12 323.38,-72.12 323.38,-38.62 424.12,-38.62 424.12,-72.12"/>
<text text-anchor="start" x="331.38" y="-58.62" font-family="Helvetica,sans-Serif" font-size="10.00">tpcpp::Interpreter</text>
<text text-anchor="middle" x="373.75" y="-45.88" font-family="Helvetica,sans-Serif" font-size="10.00">::error</text>
</a>
</g>
</g>
<!-- Node5&#45;&gt;Node6 -->
<g id="edge6_Node000005_Node000006" class="edge">
<title>Node5&#45;&gt;Node6</title>
<g id="a_edge6_Node000005_Node000006"><a xlink:title=" ">
<path fill="none" stroke="#63b8ff" d="M262.33,-55.38C278,-55.38 295.49,-55.38 311.85,-55.38"/>
<polygon fill="#63b8ff" stroke="#63b8ff" points="311.44,-58.88 321.44,-55.38 311.44,-51.88 311.44,-58.88"/>
</a>
</g>
</g>
</g>
</svg>
