<?xml version="1.0" encoding="UTF-8" standalone="no"?>
<!DOCTYPE svg PUBLIC "-//W3C//DTD SVG 1.1//EN"
 "http://www.w3.org/Graphics/SVG/1.1/DTD/svg11.dtd">
<!-- Generated by graphviz version 12.2.0 (0)
 -->
<!-- Title: tpcpp::Interpreter::evaluate Pages: 1 -->
<svg width="433pt" height="119pt"
 viewBox="0.00 0.00 433.25 118.75" xmlns="http://www.w3.org/2000/svg" xmlns:xlink="http://www.w3.org/1999/xlink">
<g id="graph0" class="graph" transform="scale(1 1) rotate(0) translate(4 114.75)">
<title>tpcpp::Interpreter::evaluate</title>
<!-- Node1 -->
<g id="Node000001" class="node">
<title>Node1</title>
<g id="a_Node000001"><a xlink:title="Evaluate a given string.">
<polygon fill="#999999" stroke="#666666" points="100.75,-72.12 0,-72.12 0,-38.62 100.75,-38.62 100.75,-72.12"/>
<text text-anchor="start" x="8" y="-58.62" font-family="Helvetica,sans-Serif" font-size="10.00">tpcpp::Interpreter</text>
<text text-anchor="middle" x="50.38" y="-45.88" font-family="Helvetica,sans-Serif" font-size="10.00">::evaluate</text>
</a>
</g>
</g>
<!-- Node2 -->
<g id="Node000002" class="node">
<title>Node2</title>
<g id="a_Node000002"><a xlink:href="classtpcpp_1_1Parser.html#a2923635437cd22b12ef8a80a0317da95" target="_top" xlink:title="Parse input tokens into expressions.">
<polygon fill="white" stroke="#666666" points="267.5,-110.75 155.5,-110.75 155.5,-90 267.5,-90 267.5,-110.75"/>
<text text-anchor="middle" x="211.5" y="-97.25" font-family="Helvetica,sans-Serif" font-size="10.00">tpcpp::Parser::parse</text>
</a>
</g>
</g>
<!-- Node1&#45;&gt;Node2 -->
<g id="edge1_Node000001_Node000002" class="edge">
<title>Node1&#45;&gt;Node2</title>
<g id="a_edge1_Node000001_Node000002"><a xlink:title=" ">
<path fill="none" stroke="#63b8ff" d="M100.93,-70.86C112.64,-74.42 125.12,-78.11 136.75,-81.38 143.03,-83.14 149.63,-84.93 156.19,-86.67"/>
<polygon fill="#63b8ff" stroke="#63b8ff" points="155.1,-90 165.66,-89.15 156.88,-83.23 155.1,-90"/>
</a>
</g>
</g>
<!-- Node3 -->
<g id="Node000003" class="node">
<title>Node3</title>
<g id="a_Node000003"><a xlink:href="structtpcpp_1_1PrinterExpr.html#a713e84bcc8586612939cea3508f0ce98" target="_top" xlink:title="Print a tpcpp::Expr to stdout.">
<polygon fill="white" stroke="#666666" points="263,-72.12 160,-72.12 160,-38.62 263,-38.62 263,-72.12"/>
<text text-anchor="start" x="168" y="-58.62" font-family="Helvetica,sans-Serif" font-size="10.00">tpcpp::PrinterExpr</text>
<text text-anchor="middle" x="211.5" y="-45.88" font-family="Helvetica,sans-Serif" font-size="10.00">::print</text>
</a>
</g>
</g>
<!-- Node1&#45;&gt;Node3 -->
<g id="edge2_Node000001_Node000003" class="edge">
<title>Node1&#45;&gt;Node3</title>
<g id="a_edge2_Node000001_Node000003"><a xlink:title=" ">
<path fill="none" stroke="#63b8ff" d="M100.85,-55.38C115.9,-55.38 132.64,-55.38 148.41,-55.38"/>
<polygon fill="#63b8ff" stroke="#63b8ff" points="148.17,-58.88 158.17,-55.38 148.17,-51.88 148.17,-58.88"/>
</a>
</g>
</g>
<!-- Node5 -->
<g id="Node000005" class="node">
<title>Node5</title>
<g id="a_Node000005"><a xlink:href="classtpcpp_1_1Scanner.html#afa0e728b32c9ab92e52077616c1ae495" target="_top" xlink:title="Scan the source code stored in m_source.">
<polygon fill="white" stroke="#666666" points="286.25,-20.75 136.75,-20.75 136.75,0 286.25,0 286.25,-20.75"/>
<text text-anchor="middle" x="211.5" y="-7.25" font-family="Helvetica,sans-Serif" font-size="10.00">tpcpp::Scanner::scanTokens</text>
</a>
</g>
</g>
<!-- Node1&#45;&gt;Node5 -->
<g id="edge5_Node000001_Node000005" class="edge">
<title>Node1&#45;&gt;Node5</title>
<g id="a_edge5_Node000001_Node000005"><a xlink:title=" ">
<path fill="none" stroke="#63b8ff" d="M100.93,-39.89C112.64,-36.33 125.12,-32.64 136.75,-29.38 143.03,-27.61 149.63,-25.82 156.19,-24.08"/>
<polygon fill="#63b8ff" stroke="#63b8ff" points="156.88,-27.52 165.66,-21.6 155.1,-20.75 156.88,-27.52"/>
</a>
</g>
</g>
<!-- Node4 -->
<g id="Node000004" class="node">
<title>Node4</title>
<g id="a_Node000004"><a xlink:href="structtpcpp_1_1PrinterExpr.html#a7e0786e0b9019fc3fdf65a7e3969d14c" target="_top" xlink:title="Convert a tpcpp::Expr to a string.">
<polygon fill="white" stroke="#666666" points="425.25,-72.12 322.25,-72.12 322.25,-38.62 425.25,-38.62 425.25,-72.12"/>
<text text-anchor="start" x="330.25" y="-58.62" font-family="Helvetica,sans-Serif" font-size="10.00">tpcpp::PrinterExpr</text>
<text text-anchor="middle" x="373.75" y="-45.88" font-family="Helvetica,sans-Serif" font-size="10.00">::operator()</text>
</a>
</g>
</g>
<!-- Node3&#45;&gt;Node4 -->
<g id="edge3_Node000003_Node000004" class="edge">
<title>Node3&#45;&gt;Node4</title>
<g id="a_edge3_Node000003_Node000004"><a xlink:title=" ">
<path fill="none" stroke="#63b8ff" d="M263.2,-55.38C278.26,-55.38 294.92,-55.38 310.61,-55.38"/>
<polygon fill="#63b8ff" stroke="#63b8ff" points="310.31,-58.88 320.31,-55.38 310.31,-51.88 310.31,-58.88"/>
</a>
</g>
</g>
<!-- Node4&#45;&gt;Node4 -->
<g id="edge4_Node000004_Node000004" class="edge">
<title>Node4&#45;&gt;Node4</title>
<g id="a_edge4_Node000004_Node000004"><a xlink:title=" ">
<path fill="none" stroke="#63b8ff" d="M344.58,-72.54C339.63,-81.74 349.35,-90.12 373.75,-90.12 387.48,-90.12 396.56,-87.47 400.99,-83.51"/>
<polygon fill="#63b8ff" stroke="#63b8ff" points="404.38,-84.48 402.66,-74.03 397.48,-83.28 404.38,-84.48"/>
</a>
</g>
</g>
</g>
</svg>
