<?xml version="1.0" encoding="UTF-8" standalone="no"?>
<!DOCTYPE svg PUBLIC "-//W3C//DTD SVG 1.1//EN"
 "http://www.w3.org/Graphics/SVG/1.1/DTD/svg11.dtd">
<!-- Generated by graphviz version 12.2.0 (0)
 -->
<!-- Title: tpcpp::Interpreter::evaluate Pages: 1 -->
<svg width="406pt" height="113pt"
 viewBox="0.00 0.00 405.50 113.25" xmlns="http://www.w3.org/2000/svg" xmlns:xlink="http://www.w3.org/1999/xlink">
<g id="graph0" class="graph" transform="scale(1 1) rotate(0) translate(4 109.25)">
<title>tpcpp::Interpreter::evaluate</title>
<!-- Node1 -->
<g id="Node000001" class="node">
<title>Node1</title>
<g id="a_Node000001"><a xlink:title="Evaluate a given string.">
<polygon fill="#999999" stroke="#666666" points="90.25,-67.88 0,-67.88 0,-37.38 90.25,-37.38 90.25,-67.88"/>
<text text-anchor="start" x="8" y="-54.38" font-family="Helvetica,sans-Serif" font-size="10.00">tpcpp::Interpreter</text>
<text text-anchor="middle" x="45.12" y="-43.12" font-family="Helvetica,sans-Serif" font-size="10.00">::evaluate</text>
</a>
</g>
</g>
<!-- Node2 -->
<g id="Node000002" class="node">
<title>Node2</title>
<g id="a_Node000002"><a xlink:href="classtpcpp_1_1_parser.html#a2923635437cd22b12ef8a80a0317da95" target="_top" xlink:title="Parse input tokens into expressions.">
<polygon fill="white" stroke="#666666" points="248.75,-105.25 144.25,-105.25 144.25,-86 248.75,-86 248.75,-105.25"/>
<text text-anchor="middle" x="196.5" y="-91.75" font-family="Helvetica,sans-Serif" font-size="10.00">tpcpp::Parser::parse</text>
</a>
</g>
</g>
<!-- Node1&#45;&gt;Node2 -->
<g id="edge1_Node000001_Node000002" class="edge">
<title>Node1&#45;&gt;Node2</title>
<g id="a_edge1_Node000001_Node000002"><a xlink:title=" ">
<path fill="none" stroke="#63b8ff" d="M90.57,-66.14C102.17,-69.61 114.66,-73.3 126.25,-76.62 133.01,-78.57 140.16,-80.57 147.19,-82.53"/>
<polygon fill="#63b8ff" stroke="#63b8ff" points="146.05,-85.84 156.62,-85.13 147.91,-79.09 146.05,-85.84"/>
</a>
</g>
</g>
<!-- Node3 -->
<g id="Node000003" class="node">
<title>Node3</title>
<g id="a_Node000003"><a xlink:href="structtpcpp_1_1_printer_expr.html#a713e84bcc8586612939cea3508f0ce98" target="_top" xlink:title="Print a tpcpp::Expr to stdout.">
<polygon fill="white" stroke="#666666" points="243.88,-67.88 149.12,-67.88 149.12,-37.38 243.88,-37.38 243.88,-67.88"/>
<text text-anchor="start" x="157.12" y="-54.38" font-family="Helvetica,sans-Serif" font-size="10.00">tpcpp::PrinterExpr</text>
<text text-anchor="middle" x="196.5" y="-43.12" font-family="Helvetica,sans-Serif" font-size="10.00">::print</text>
</a>
</g>
</g>
<!-- Node1&#45;&gt;Node3 -->
<g id="edge2_Node000001_Node000003" class="edge">
<title>Node1&#45;&gt;Node3</title>
<g id="a_edge2_Node000001_Node000003"><a xlink:title=" ">
<path fill="none" stroke="#63b8ff" d="M90.54,-52.62C105.28,-52.62 121.91,-52.62 137.52,-52.62"/>
<polygon fill="#63b8ff" stroke="#63b8ff" points="137.15,-56.13 147.15,-52.63 137.15,-49.13 137.15,-56.13"/>
</a>
</g>
</g>
<!-- Node5 -->
<g id="Node000005" class="node">
<title>Node5</title>
<g id="a_Node000005"><a xlink:href="classtpcpp_1_1_scanner.html#afa0e728b32c9ab92e52077616c1ae495" target="_top" xlink:title="Scan the source code stored in m_source.">
<polygon fill="white" stroke="#666666" points="266.75,-19.25 126.25,-19.25 126.25,0 266.75,0 266.75,-19.25"/>
<text text-anchor="middle" x="196.5" y="-5.75" font-family="Helvetica,sans-Serif" font-size="10.00">tpcpp::Scanner::scanTokens</text>
</a>
</g>
</g>
<!-- Node1&#45;&gt;Node5 -->
<g id="edge5_Node000001_Node000005" class="edge">
<title>Node1&#45;&gt;Node5</title>
<g id="a_edge5_Node000001_Node000005"><a xlink:title=" ">
<path fill="none" stroke="#63b8ff" d="M90.57,-39.11C102.17,-35.64 114.66,-31.95 126.25,-28.62 133.01,-26.68 140.16,-24.68 147.19,-22.72"/>
<polygon fill="#63b8ff" stroke="#63b8ff" points="147.91,-26.16 156.62,-20.12 146.05,-19.41 147.91,-26.16"/>
</a>
</g>
</g>
<!-- Node4 -->
<g id="Node000004" class="node">
<title>Node4</title>
<g id="a_Node000004"><a xlink:href="structtpcpp_1_1_printer_expr.html#a7e0786e0b9019fc3fdf65a7e3969d14c" target="_top" xlink:title="Convert a tpcpp::Expr to a string.">
<polygon fill="white" stroke="#666666" points="397.5,-67.88 302.75,-67.88 302.75,-37.38 397.5,-37.38 397.5,-67.88"/>
<text text-anchor="start" x="310.75" y="-54.38" font-family="Helvetica,sans-Serif" font-size="10.00">tpcpp::PrinterExpr</text>
<text text-anchor="middle" x="350.12" y="-43.12" font-family="Helvetica,sans-Serif" font-size="10.00">::operator()</text>
</a>
</g>
</g>
<!-- Node3&#45;&gt;Node4 -->
<g id="edge3_Node000003_Node000004" class="edge">
<title>Node3&#45;&gt;Node4</title>
<g id="a_edge3_Node000003_Node000004"><a xlink:title=" ">
<path fill="none" stroke="#63b8ff" d="M244.23,-52.62C259.07,-52.62 275.67,-52.62 291.21,-52.62"/>
<polygon fill="#63b8ff" stroke="#63b8ff" points="290.78,-56.13 300.78,-52.63 290.78,-49.13 290.78,-56.13"/>
</a>
</g>
</g>
<!-- Node4&#45;&gt;Node4 -->
<g id="edge4_Node000004_Node000004" class="edge">
<title>Node4&#45;&gt;Node4</title>
<g id="a_edge4_Node000004_Node000004"><a xlink:title=" ">
<path fill="none" stroke="#63b8ff" d="M322.9,-68.36C317.35,-77.43 326.42,-85.88 350.12,-85.88 363.09,-85.88 371.68,-83.35 375.89,-79.58"/>
<polygon fill="#63b8ff" stroke="#63b8ff" points="379.33,-80.23 377.15,-69.86 372.39,-79.33 379.33,-80.23"/>
</a>
</g>
</g>
</g>
</svg>
