<?xml version="1.0" encoding="UTF-8" standalone="no"?>
<!DOCTYPE svg PUBLIC "-//W3C//DTD SVG 1.1//EN"
 "http://www.w3.org/Graphics/SVG/1.1/DTD/svg11.dtd">
<!-- Generated by graphviz version 12.2.0 (0)
 -->
<!-- Title: Graphical Class Hierarchy Pages: 1 -->
<svg width="271pt" height="64pt"
 viewBox="0.00 0.00 271.00 64.25" xmlns="http://www.w3.org/2000/svg" xmlns:xlink="http://www.w3.org/1999/xlink">
<g id="graph0" class="graph" transform="scale(1 1) rotate(0) translate(4 60.25)">
<title>Graphical Class Hierarchy</title>
<!-- Node0 -->
<g id="Node000000" class="node">
<title>Node0</title>
<g id="a_Node000000"><a xlink:title=" ">
<polygon fill="#e0e0e0" stroke="#999999" points="77.5,-37.25 0,-37.25 0,-18 77.5,-18 77.5,-37.25"/>
<text text-anchor="middle" x="38.75" y="-23.75" font-family="Helvetica,sans-Serif" font-size="10.00">std::exception</text>
</a>
</g>
</g>
<!-- Node1 -->
<g id="Node000001" class="node">
<title>Node1</title>
<g id="a_Node000001"><a xlink:href="classtpcpp_1_1_parser_1_1_parse_exception.html" target="_top" xlink:title="Exception thrown when a parsing error occurs.">
<polygon fill="white" stroke="#666666" points="263,-56.25 113.5,-56.25 113.5,-37 263,-37 263,-56.25"/>
<text text-anchor="middle" x="188.25" y="-42.75" font-family="Helvetica,sans-Serif" font-size="10.00">tpcpp::Parser::ParseException</text>
</a>
</g>
</g>
<!-- Node0&#45;&gt;Node1 -->
<g id="edge1_Node000000_Node000001" class="edge">
<title>Node0&#45;&gt;Node1</title>
<g id="a_edge1_Node000000_Node000001"><a xlink:title=" ">
<path fill="none" stroke="#63b8ff" d="M88.89,-33.95C96.74,-34.97 105.01,-36.03 113.28,-37.1"/>
<polygon fill="#63b8ff" stroke="#63b8ff" points="89.6,-30.52 79.24,-32.71 88.71,-37.46 89.6,-30.52"/>
</a>
</g>
</g>
<!-- Node2 -->
<g id="Node000002" class="node">
<title>Node2</title>
<g id="a_Node000002"><a xlink:href="structtpcpp_1_1_runtime_error.html" target="_top" xlink:title=" ">
<polygon fill="white" stroke="#666666" points="240.12,-19.25 136.38,-19.25 136.38,0 240.12,0 240.12,-19.25"/>
<text text-anchor="middle" x="188.25" y="-5.75" font-family="Helvetica,sans-Serif" font-size="10.00">tpcpp::RuntimeError</text>
</a>
</g>
</g>
<!-- Node0&#45;&gt;Node2 -->
<g id="edge2_Node000000_Node000002" class="edge">
<title>Node0&#45;&gt;Node2</title>
<g id="a_edge2_Node000000_Node000002"><a xlink:title=" ">
<path fill="none" stroke="#63b8ff" d="M88.96,-21.62C104.09,-19.77 120.78,-17.74 136.05,-15.87"/>
<polygon fill="#63b8ff" stroke="#63b8ff" points="88.74,-18.12 79.24,-22.81 89.59,-25.07 88.74,-18.12"/>
</a>
</g>
</g>
</g>
</svg>
