<?xml version="1.0" encoding="UTF-8" standalone="no"?>
<!DOCTYPE svg PUBLIC "-//W3C//DTD SVG 1.1//EN"
 "http://www.w3.org/Graphics/SVG/1.1/DTD/svg11.dtd">
<!-- Generated by graphviz version 12.2.0 (0)
 -->
<!-- Title: tpcpp::PrinterExpr::print Pages: 1 -->
<svg width="250pt" height="60pt"
 viewBox="0.00 0.00 250.00 59.50" xmlns="http://www.w3.org/2000/svg" xmlns:xlink="http://www.w3.org/1999/xlink">
<g id="graph0" class="graph" transform="scale(1 1) rotate(0) translate(4 55.5)">
<title>tpcpp::PrinterExpr::print</title>
<!-- Node1 -->
<g id="Node000001" class="node">
<title>Node1</title>
<g id="a_Node000001"><a xlink:title="Print a tpcpp::Expr to stdout.">
<polygon fill="#999999" stroke="#666666" points="103,-33.5 0,-33.5 0,0 103,0 103,-33.5"/>
<text text-anchor="start" x="8" y="-20" font-family="Helvetica,sans-Serif" font-size="10.00">tpcpp::PrinterExpr</text>
<text text-anchor="middle" x="51.5" y="-7.25" font-family="Helvetica,sans-Serif" font-size="10.00">::print</text>
</a>
</g>
</g>
<!-- Node2 -->
<g id="Node000002" class="node">
<title>Node2</title>
<g id="a_Node000002"><a xlink:href="structtpcpp_1_1PrinterExpr.html#a7e0786e0b9019fc3fdf65a7e3969d14c" target="_top" xlink:title="Convert a tpcpp::Expr to a string.">
<polygon fill="white" stroke="#666666" points="242,-33.5 139,-33.5 139,0 242,0 242,-33.5"/>
<text text-anchor="start" x="147" y="-20" font-family="Helvetica,sans-Serif" font-size="10.00">tpcpp::PrinterExpr</text>
<text text-anchor="middle" x="190.5" y="-7.25" font-family="Helvetica,sans-Serif" font-size="10.00">::operator()</text>
</a>
</g>
</g>
<!-- Node1&#45;&gt;Node2 -->
<g id="edge1_Node000001_Node000002" class="edge">
<title>Node1&#45;&gt;Node2</title>
<g id="a_edge1_Node000001_Node000002"><a xlink:title=" ">
<path fill="none" stroke="#63b8ff" d="M103.12,-16.75C111,-16.75 119.21,-16.75 127.31,-16.75"/>
<polygon fill="#63b8ff" stroke="#63b8ff" points="127.11,-20.25 137.11,-16.75 127.11,-13.25 127.11,-20.25"/>
</a>
</g>
</g>
<!-- Node2&#45;&gt;Node2 -->
<g id="edge2_Node000002_Node000002" class="edge">
<title>Node2&#45;&gt;Node2</title>
<g id="a_edge2_Node000002_Node000002"><a xlink:title=" ">
<path fill="none" stroke="#63b8ff" d="M165.51,-33.91C161.27,-43.12 169.6,-51.5 190.5,-51.5 201.93,-51.5 209.6,-48.99 213.51,-45.22"/>
<polygon fill="#63b8ff" stroke="#63b8ff" points="216.95,-45.86 215.23,-35.41 210.06,-44.65 216.95,-45.86"/>
</a>
</g>
</g>
</g>
</svg>
