<?xml version="1.0" encoding="UTF-8" standalone="no"?>
<!DOCTYPE svg PUBLIC "-//W3C//DTD SVG 1.1//EN"
 "http://www.w3.org/Graphics/SVG/1.1/DTD/svg11.dtd">
<!-- Generated by graphviz version 12.1.0 (0)
 -->
<!-- Title: tpcpp::PrinterExpr::operator() Pages: 1 -->
<svg width="387pt" height="60pt"
 viewBox="0.00 0.00 386.75 59.50" xmlns="http://www.w3.org/2000/svg" xmlns:xlink="http://www.w3.org/1999/xlink">
<g id="graph0" class="graph" transform="scale(1 1) rotate(0) translate(4 55.5)">
<title>tpcpp::PrinterExpr::operator()</title>
<!-- Node1 -->
<g id="Node000001" class="node">
<title>Node1</title>
<g id="a_Node000001"><a xlink:title="Convert a tpcpp::Expr to a string.">
<polygon fill="#999999" stroke="#666666" points="378.75,-33.5 275.75,-33.5 275.75,0 378.75,0 378.75,-33.5"/>
<text text-anchor="start" x="283.75" y="-20" font-family="Helvetica,sans-Serif" font-size="10.00">tpcpp::PrinterExpr</text>
<text text-anchor="middle" x="327.25" y="-7.25" font-family="Helvetica,sans-Serif" font-size="10.00">::operator()</text>
</a>
</g>
</g>
<!-- Node1&#45;&gt;Node1 -->
<g id="edge1_Node000001_Node000001" class="edge">
<title>Node1&#45;&gt;Node1</title>
<g id="a_edge1_Node000001_Node000001"><a xlink:title=" ">
<path fill="none" stroke="#63b8ff" d="M350.26,-45.22C346.35,-48.99 338.68,-51.5 327.25,-51.5 306.35,-51.5 298.02,-43.12 302.26,-33.91"/>
<polygon fill="#63b8ff" stroke="#63b8ff" points="353.7,-45.86 351.98,-35.41 346.81,-44.65 353.7,-45.86"/>
</a>
</g>
</g>
<!-- Node2 -->
<g id="Node000002" class="node">
<title>Node2</title>
<g id="a_Node000002"><a xlink:href="structtpcpp_1_1PrinterExpr.html#a713e84bcc8586612939cea3508f0ce98" target="_top" xlink:title="Print a tpcpp::Expr to stdout.">
<polygon fill="white" stroke="#666666" points="239.75,-33.5 136.75,-33.5 136.75,0 239.75,0 239.75,-33.5"/>
<text text-anchor="start" x="144.75" y="-20" font-family="Helvetica,sans-Serif" font-size="10.00">tpcpp::PrinterExpr</text>
<text text-anchor="middle" x="188.25" y="-7.25" font-family="Helvetica,sans-Serif" font-size="10.00">::print</text>
</a>
</g>
</g>
<!-- Node1&#45;&gt;Node2 -->
<g id="edge2_Node000001_Node000002" class="edge">
<title>Node1&#45;&gt;Node2</title>
<g id="a_edge2_Node000001_Node000002"><a xlink:title=" ">
<path fill="none" stroke="#63b8ff" d="M264.31,-16.75C256.22,-16.75 248.01,-16.75 240.12,-16.75"/>
<polygon fill="#63b8ff" stroke="#63b8ff" points="264.11,-20.25 274.11,-16.75 264.11,-13.25 264.11,-20.25"/>
</a>
</g>
</g>
<!-- Node3 -->
<g id="Node000003" class="node">
<title>Node3</title>
<g id="a_Node000003"><a xlink:href="classtpcpp_1_1Interpreter.html#ae890f0724e478409becfced78fba29f2" target="_top" xlink:title="Evaluate a given string.">
<polygon fill="white" stroke="#666666" points="100.75,-33.5 0,-33.5 0,0 100.75,0 100.75,-33.5"/>
<text text-anchor="start" x="8" y="-20" font-family="Helvetica,sans-Serif" font-size="10.00">tpcpp::Interpreter</text>
<text text-anchor="middle" x="50.38" y="-7.25" font-family="Helvetica,sans-Serif" font-size="10.00">::evaluate</text>
</a>
</g>
</g>
<!-- Node2&#45;&gt;Node3 -->
<g id="edge3_Node000002_Node000003" class="edge">
<title>Node2&#45;&gt;Node3</title>
<g id="a_edge3_Node000002_Node000003"><a xlink:title=" ">
<path fill="none" stroke="#63b8ff" d="M124.96,-16.75C116.87,-16.75 108.68,-16.75 100.84,-16.75"/>
<polygon fill="#63b8ff" stroke="#63b8ff" points="124.76,-20.25 134.76,-16.75 124.76,-13.25 124.76,-20.25"/>
</a>
</g>
</g>
</g>
</svg>
