<?xml version="1.0" encoding="UTF-8" standalone="no"?>
<!DOCTYPE svg PUBLIC "-//W3C//DTD SVG 1.1//EN"
 "http://www.w3.org/Graphics/SVG/1.1/DTD/svg11.dtd">
<!-- Generated by graphviz version 12.2.0 (0)
 -->
<!-- Title: tpcpp::PrinterExpr::operator() Pages: 1 -->
<svg width="360pt" height="57pt"
 viewBox="0.00 0.00 359.75 56.50" xmlns="http://www.w3.org/2000/svg" xmlns:xlink="http://www.w3.org/1999/xlink">
<g id="graph0" class="graph" transform="scale(1 1) rotate(0) translate(4 52.5)">
<title>tpcpp::PrinterExpr::operator()</title>
<!-- Node1 -->
<g id="Node000001" class="node">
<title>Node1</title>
<g id="a_Node000001"><a xlink:title="Convert a tpcpp::Expr to a string.">
<polygon fill="#999999" stroke="#666666" points="351.75,-30.5 257,-30.5 257,0 351.75,0 351.75,-30.5"/>
<text text-anchor="start" x="265" y="-17" font-family="Helvetica,sans-Serif" font-size="10.00">tpcpp::PrinterExpr</text>
<text text-anchor="middle" x="304.38" y="-5.75" font-family="Helvetica,sans-Serif" font-size="10.00">::operator()</text>
</a>
</g>
</g>
<!-- Node1&#45;&gt;Node1 -->
<g id="edge1_Node000001_Node000001" class="edge">
<title>Node1&#45;&gt;Node1</title>
<g id="a_edge1_Node000001_Node000001"><a xlink:title=" ">
<path fill="none" stroke="#63b8ff" d="M326.3,-42.2C322.72,-45.97 315.41,-48.5 304.38,-48.5 284.2,-48.5 276.48,-40.06 281.21,-30.99"/>
<polygon fill="#63b8ff" stroke="#63b8ff" points="329.76,-42.81 327.38,-32.49 322.8,-42.04 329.76,-42.81"/>
</a>
</g>
</g>
<!-- Node2 -->
<g id="Node000002" class="node">
<title>Node2</title>
<g id="a_Node000002"><a xlink:href="structtpcpp_1_1_printer_expr.html#a713e84bcc8586612939cea3508f0ce98" target="_top" xlink:title="Print a tpcpp::Expr to stdout.">
<polygon fill="white" stroke="#666666" points="221,-30.5 126.25,-30.5 126.25,0 221,0 221,-30.5"/>
<text text-anchor="start" x="134.25" y="-17" font-family="Helvetica,sans-Serif" font-size="10.00">tpcpp::PrinterExpr</text>
<text text-anchor="middle" x="173.62" y="-5.75" font-family="Helvetica,sans-Serif" font-size="10.00">::print</text>
</a>
</g>
</g>
<!-- Node1&#45;&gt;Node2 -->
<g id="edge2_Node000001_Node000002" class="edge">
<title>Node1&#45;&gt;Node2</title>
<g id="a_edge2_Node000001_Node000002"><a xlink:title=" ">
<path fill="none" stroke="#63b8ff" d="M245.28,-15.25C237.22,-15.25 229.03,-15.25 221.22,-15.25"/>
<polygon fill="#63b8ff" stroke="#63b8ff" points="245.02,-18.75 255.02,-15.25 245.02,-11.75 245.02,-18.75"/>
</a>
</g>
</g>
<!-- Node3 -->
<g id="Node000003" class="node">
<title>Node3</title>
<g id="a_Node000003"><a xlink:href="classtpcpp_1_1_interpreter.html#ae890f0724e478409becfced78fba29f2" target="_top" xlink:title="Evaluate a given string.">
<polygon fill="white" stroke="#666666" points="90.25,-30.5 0,-30.5 0,0 90.25,0 90.25,-30.5"/>
<text text-anchor="start" x="8" y="-17" font-family="Helvetica,sans-Serif" font-size="10.00">tpcpp::Interpreter</text>
<text text-anchor="middle" x="45.12" y="-5.75" font-family="Helvetica,sans-Serif" font-size="10.00">::evaluate</text>
</a>
</g>
</g>
<!-- Node2&#45;&gt;Node3 -->
<g id="edge3_Node000002_Node000003" class="edge">
<title>Node2&#45;&gt;Node3</title>
<g id="a_edge3_Node000002_Node000003"><a xlink:title=" ">
<path fill="none" stroke="#63b8ff" d="M114.6,-15.25C106.53,-15.25 98.35,-15.25 90.58,-15.25"/>
<polygon fill="#63b8ff" stroke="#63b8ff" points="114.37,-18.75 124.37,-15.25 114.37,-11.75 114.37,-18.75"/>
</a>
</g>
</g>
</g>
</svg>
