<?xml version="1.0" encoding="UTF-8" standalone="no"?>
<!DOCTYPE svg PUBLIC "-//W3C//DTD SVG 1.1//EN"
 "http://www.w3.org/Graphics/SVG/1.1/DTD/svg11.dtd">
<!-- Generated by graphviz version 12.1.0 (0)
 -->
<!-- Title: tpcpp::PrinterExpr::print Pages: 1 -->
<svg width="406pt" height="42pt"
 viewBox="0.00 0.00 406.25 41.50" xmlns="http://www.w3.org/2000/svg" xmlns:xlink="http://www.w3.org/1999/xlink">
<g id="graph0" class="graph" transform="scale(1 1) rotate(0) translate(4 37.5)">
<title>tpcpp::PrinterExpr::print</title>
<!-- Node1 -->
<g id="Node000001" class="node">
<title>Node1</title>
<g id="a_Node000001"><a xlink:title="Print a tpcpp::Expr to stdout.">
<polygon fill="#999999" stroke="#666666" points="398.25,-33.5 295.25,-33.5 295.25,0 398.25,0 398.25,-33.5"/>
<text text-anchor="start" x="303.25" y="-20" font-family="Helvetica,sans-Serif" font-size="10.00">tpcpp::PrinterExpr</text>
<text text-anchor="middle" x="346.75" y="-7.25" font-family="Helvetica,sans-Serif" font-size="10.00">::print</text>
</a>
</g>
</g>
<!-- Node2 -->
<g id="Node000002" class="node">
<title>Node2</title>
<g id="a_Node000002"><a xlink:href="classtpcpp_1_1Interpreter.html#ae890f0724e478409becfced78fba29f2" target="_top" xlink:title="Evaluate a given string.">
<polygon fill="white" stroke="#666666" points="259.25,-33.5 158.5,-33.5 158.5,0 259.25,0 259.25,-33.5"/>
<text text-anchor="start" x="166.5" y="-20" font-family="Helvetica,sans-Serif" font-size="10.00">tpcpp::Interpreter</text>
<text text-anchor="middle" x="208.88" y="-7.25" font-family="Helvetica,sans-Serif" font-size="10.00">::evaluate</text>
</a>
</g>
</g>
<!-- Node1&#45;&gt;Node2 -->
<g id="edge1_Node000001_Node000002" class="edge">
<title>Node1&#45;&gt;Node2</title>
<g id="a_edge1_Node000001_Node000002"><a xlink:title=" ">
<path fill="none" stroke="#63b8ff" d="M283.46,-16.75C275.37,-16.75 267.18,-16.75 259.34,-16.75"/>
<polygon fill="#63b8ff" stroke="#63b8ff" points="283.26,-20.25 293.26,-16.75 283.26,-13.25 283.26,-20.25"/>
</a>
</g>
</g>
<!-- Node3 -->
<g id="Node000003" class="node">
<title>Node3</title>
<g id="a_Node000003"><a xlink:href="classtpcpp_1_1Interpreter.html#a7ccf59509a652749a1ecf35d04439973" target="_top" xlink:title="Start the interpreter REPL loop.">
<polygon fill="white" stroke="#666666" points="122.5,-27.12 0,-27.12 0,-6.38 122.5,-6.38 122.5,-27.12"/>
<text text-anchor="middle" x="61.25" y="-13.62" font-family="Helvetica,sans-Serif" font-size="10.00">tpcpp::Interpreter::run</text>
</a>
</g>
</g>
<!-- Node2&#45;&gt;Node3 -->
<g id="edge2_Node000002_Node000003" class="edge">
<title>Node2&#45;&gt;Node3</title>
<g id="a_edge2_Node000002_Node000003"><a xlink:title=" ">
<path fill="none" stroke="#63b8ff" d="M146.75,-16.75C138.83,-16.75 130.72,-16.75 122.82,-16.75"/>
<polygon fill="#63b8ff" stroke="#63b8ff" points="146.65,-20.25 156.65,-16.75 146.65,-13.25 146.65,-20.25"/>
</a>
</g>
</g>
</g>
</svg>
